<mxfile host="app.diagrams.net" modified="2023-09-21T12:05:03.808Z" agent="Mozilla/5.0 (Windows NT 10.0; Win64; x64) AppleWebKit/537.36 (KHTML, like Gecko) Chrome/116.0.0.0 Safari/537.36" etag="zubrn2CyXZPJPdXmM57j" version="21.7.5" type="device">
  <diagram name="1 oldal" id="ATofW0HO6QJP-qFnp4GN">
    <mxGraphModel dx="1434" dy="790" grid="1" gridSize="10" guides="1" tooltips="1" connect="1" arrows="1" fold="1" page="1" pageScale="1" pageWidth="827" pageHeight="1169" math="0" shadow="0">
      <root>
        <mxCell id="0" />
        <mxCell id="1" parent="0" />
        <mxCell id="anE3ab0i8hTbZUQjGZdU-1" value="csapat" style="rounded=0;whiteSpace=wrap;html=1;" vertex="1" parent="1">
          <mxGeometry x="280" y="380" width="120" height="60" as="geometry" />
        </mxCell>
        <mxCell id="anE3ab0i8hTbZUQjGZdU-2" value="&lt;u&gt;nev&lt;/u&gt;" style="ellipse;whiteSpace=wrap;html=1;" vertex="1" parent="1">
          <mxGeometry x="170" y="250" width="90" height="50" as="geometry" />
        </mxCell>
        <mxCell id="anE3ab0i8hTbZUQjGZdU-3" value="logo" style="ellipse;whiteSpace=wrap;html=1;" vertex="1" parent="1">
          <mxGeometry x="320" y="260" width="90" height="50" as="geometry" />
        </mxCell>
        <mxCell id="anE3ab0i8hTbZUQjGZdU-5" value="edző" style="ellipse;whiteSpace=wrap;html=1;" vertex="1" parent="1">
          <mxGeometry x="140" y="410" width="90" height="50" as="geometry" />
        </mxCell>
        <mxCell id="anE3ab0i8hTbZUQjGZdU-6" value="jatekosa" style="rhombus;whiteSpace=wrap;html=1;" vertex="1" parent="1">
          <mxGeometry x="440" y="460" width="100" height="80" as="geometry" />
        </mxCell>
        <mxCell id="anE3ab0i8hTbZUQjGZdU-8" value="jatekos" style="rounded=0;whiteSpace=wrap;html=1;" vertex="1" parent="1">
          <mxGeometry x="570" y="330" width="120" height="60" as="geometry" />
        </mxCell>
        <mxCell id="anE3ab0i8hTbZUQjGZdU-9" value="&lt;u&gt;nev&lt;/u&gt;" style="ellipse;whiteSpace=wrap;html=1;" vertex="1" parent="1">
          <mxGeometry x="600" y="220" width="90" height="50" as="geometry" />
        </mxCell>
        <mxCell id="anE3ab0i8hTbZUQjGZdU-10" value="" style="endArrow=none;html=1;rounded=0;entryX=0.69;entryY=0.188;entryDx=0;entryDy=0;entryPerimeter=0;exitX=0.25;exitY=1;exitDx=0;exitDy=0;" edge="1" parent="1" source="anE3ab0i8hTbZUQjGZdU-8" target="anE3ab0i8hTbZUQjGZdU-6">
          <mxGeometry width="50" height="50" relative="1" as="geometry">
            <mxPoint x="390" y="430" as="sourcePoint" />
            <mxPoint x="440" y="380" as="targetPoint" />
          </mxGeometry>
        </mxCell>
        <mxCell id="anE3ab0i8hTbZUQjGZdU-11" value="" style="endArrow=none;html=1;rounded=0;entryX=0.417;entryY=0.017;entryDx=0;entryDy=0;entryPerimeter=0;exitX=0.678;exitY=1;exitDx=0;exitDy=0;exitPerimeter=0;" edge="1" parent="1" source="anE3ab0i8hTbZUQjGZdU-9" target="anE3ab0i8hTbZUQjGZdU-8">
          <mxGeometry width="50" height="50" relative="1" as="geometry">
            <mxPoint x="610" y="400" as="sourcePoint" />
            <mxPoint x="519" y="485" as="targetPoint" />
          </mxGeometry>
        </mxCell>
        <mxCell id="anE3ab0i8hTbZUQjGZdU-12" value="" style="endArrow=none;html=1;rounded=0;entryX=0.17;entryY=0.313;entryDx=0;entryDy=0;entryPerimeter=0;exitX=0.925;exitY=1;exitDx=0;exitDy=0;exitPerimeter=0;" edge="1" parent="1" source="anE3ab0i8hTbZUQjGZdU-1" target="anE3ab0i8hTbZUQjGZdU-6">
          <mxGeometry width="50" height="50" relative="1" as="geometry">
            <mxPoint x="610" y="400" as="sourcePoint" />
            <mxPoint x="519" y="485" as="targetPoint" />
          </mxGeometry>
        </mxCell>
        <mxCell id="anE3ab0i8hTbZUQjGZdU-13" value="" style="endArrow=none;html=1;rounded=0;entryX=0.5;entryY=1;entryDx=0;entryDy=0;exitX=0.5;exitY=0;exitDx=0;exitDy=0;" edge="1" parent="1" source="anE3ab0i8hTbZUQjGZdU-1" target="anE3ab0i8hTbZUQjGZdU-3">
          <mxGeometry width="50" height="50" relative="1" as="geometry">
            <mxPoint x="401" y="450" as="sourcePoint" />
            <mxPoint x="467" y="495" as="targetPoint" />
          </mxGeometry>
        </mxCell>
        <mxCell id="anE3ab0i8hTbZUQjGZdU-14" value="" style="endArrow=none;html=1;rounded=0;entryX=1;entryY=1;entryDx=0;entryDy=0;exitX=0.317;exitY=0.05;exitDx=0;exitDy=0;exitPerimeter=0;" edge="1" parent="1" source="anE3ab0i8hTbZUQjGZdU-1" target="anE3ab0i8hTbZUQjGZdU-2">
          <mxGeometry width="50" height="50" relative="1" as="geometry">
            <mxPoint x="350" y="390" as="sourcePoint" />
            <mxPoint x="375" y="320" as="targetPoint" />
          </mxGeometry>
        </mxCell>
        <mxCell id="anE3ab0i8hTbZUQjGZdU-15" value="" style="endArrow=none;html=1;rounded=0;exitX=0;exitY=1;exitDx=0;exitDy=0;entryX=1;entryY=0;entryDx=0;entryDy=0;" edge="1" parent="1" source="anE3ab0i8hTbZUQjGZdU-1" target="anE3ab0i8hTbZUQjGZdU-5">
          <mxGeometry width="50" height="50" relative="1" as="geometry">
            <mxPoint x="328" y="393" as="sourcePoint" />
            <mxPoint x="257" y="303" as="targetPoint" />
          </mxGeometry>
        </mxCell>
        <mxCell id="anE3ab0i8hTbZUQjGZdU-16" value="csapat" style="swimlane;fontStyle=0;childLayout=stackLayout;horizontal=1;startSize=30;horizontalStack=0;resizeParent=1;resizeParentMax=0;resizeLast=0;collapsible=1;marginBottom=0;whiteSpace=wrap;html=1;direction=east;" vertex="1" parent="1">
          <mxGeometry x="110" y="640" width="140" height="120" as="geometry" />
        </mxCell>
        <mxCell id="anE3ab0i8hTbZUQjGZdU-17" value="&lt;u&gt;név&lt;/u&gt;" style="text;strokeColor=none;fillColor=none;align=left;verticalAlign=middle;spacingLeft=4;spacingRight=4;overflow=hidden;points=[[0,0.5],[1,0.5]];portConstraint=eastwest;rotatable=0;whiteSpace=wrap;html=1;" vertex="1" parent="anE3ab0i8hTbZUQjGZdU-16">
          <mxGeometry y="30" width="140" height="30" as="geometry" />
        </mxCell>
        <mxCell id="anE3ab0i8hTbZUQjGZdU-18" value="logo" style="text;strokeColor=none;fillColor=none;align=left;verticalAlign=middle;spacingLeft=4;spacingRight=4;overflow=hidden;points=[[0,0.5],[1,0.5]];portConstraint=eastwest;rotatable=0;whiteSpace=wrap;html=1;" vertex="1" parent="anE3ab0i8hTbZUQjGZdU-16">
          <mxGeometry y="60" width="140" height="30" as="geometry" />
        </mxCell>
        <mxCell id="anE3ab0i8hTbZUQjGZdU-19" value="edző" style="text;strokeColor=none;fillColor=none;align=left;verticalAlign=middle;spacingLeft=4;spacingRight=4;overflow=hidden;points=[[0,0.5],[1,0.5]];portConstraint=eastwest;rotatable=0;whiteSpace=wrap;html=1;" vertex="1" parent="anE3ab0i8hTbZUQjGZdU-16">
          <mxGeometry y="90" width="140" height="30" as="geometry" />
        </mxCell>
        <mxCell id="anE3ab0i8hTbZUQjGZdU-21" value="pk:név" style="rounded=0;whiteSpace=wrap;html=1;" vertex="1" parent="1">
          <mxGeometry x="110" y="760" width="140" height="40" as="geometry" />
        </mxCell>
        <mxCell id="anE3ab0i8hTbZUQjGZdU-23" value="jatekos" style="swimlane;fontStyle=0;childLayout=stackLayout;horizontal=1;startSize=30;horizontalStack=0;resizeParent=1;resizeParentMax=0;resizeLast=0;collapsible=1;marginBottom=0;whiteSpace=wrap;html=1;direction=east;" vertex="1" parent="1">
          <mxGeometry x="540" y="670" width="140" height="60" as="geometry" />
        </mxCell>
        <mxCell id="anE3ab0i8hTbZUQjGZdU-24" value="&lt;u&gt;név&lt;/u&gt;" style="text;strokeColor=none;fillColor=none;align=left;verticalAlign=middle;spacingLeft=4;spacingRight=4;overflow=hidden;points=[[0,0.5],[1,0.5]];portConstraint=eastwest;rotatable=0;whiteSpace=wrap;html=1;" vertex="1" parent="anE3ab0i8hTbZUQjGZdU-23">
          <mxGeometry y="30" width="140" height="30" as="geometry" />
        </mxCell>
        <mxCell id="anE3ab0i8hTbZUQjGZdU-27" value="pk:név" style="rounded=0;whiteSpace=wrap;html=1;" vertex="1" parent="1">
          <mxGeometry x="540" y="730" width="140" height="40" as="geometry" />
        </mxCell>
        <mxCell id="anE3ab0i8hTbZUQjGZdU-28" value="jatekos" style="swimlane;fontStyle=0;childLayout=stackLayout;horizontal=1;startSize=30;horizontalStack=0;resizeParent=1;resizeParentMax=0;resizeLast=0;collapsible=1;marginBottom=0;whiteSpace=wrap;html=1;direction=east;" vertex="1" parent="1">
          <mxGeometry x="320" y="640" width="140" height="120" as="geometry" />
        </mxCell>
        <mxCell id="anE3ab0i8hTbZUQjGZdU-29" value="&lt;u&gt;csoportnev&lt;/u&gt;" style="text;strokeColor=none;fillColor=none;align=left;verticalAlign=middle;spacingLeft=4;spacingRight=4;overflow=hidden;points=[[0,0.5],[1,0.5]];portConstraint=eastwest;rotatable=0;whiteSpace=wrap;html=1;" vertex="1" parent="anE3ab0i8hTbZUQjGZdU-28">
          <mxGeometry y="30" width="140" height="30" as="geometry" />
        </mxCell>
        <mxCell id="anE3ab0i8hTbZUQjGZdU-30" value="játékosnev" style="text;strokeColor=none;fillColor=none;align=left;verticalAlign=middle;spacingLeft=4;spacingRight=4;overflow=hidden;points=[[0,0.5],[1,0.5]];portConstraint=eastwest;rotatable=0;whiteSpace=wrap;html=1;" vertex="1" parent="anE3ab0i8hTbZUQjGZdU-28">
          <mxGeometry y="60" width="140" height="30" as="geometry" />
        </mxCell>
        <mxCell id="anE3ab0i8hTbZUQjGZdU-31" value="mezszam" style="text;strokeColor=none;fillColor=none;align=left;verticalAlign=middle;spacingLeft=4;spacingRight=4;overflow=hidden;points=[[0,0.5],[1,0.5]];portConstraint=eastwest;rotatable=0;whiteSpace=wrap;html=1;" vertex="1" parent="anE3ab0i8hTbZUQjGZdU-28">
          <mxGeometry y="90" width="140" height="30" as="geometry" />
        </mxCell>
        <mxCell id="anE3ab0i8hTbZUQjGZdU-32" value="pk:név" style="rounded=0;whiteSpace=wrap;html=1;" vertex="1" parent="1">
          <mxGeometry x="320" y="760" width="140" height="40" as="geometry" />
        </mxCell>
      </root>
    </mxGraphModel>
  </diagram>
</mxfile>
